<svg xmlns="http://www.w3.org/2000/svg" width="64" height="64" viewBox="0 0 64 64">
  <defs>
    <linearGradient id="g" x1="8" y1="8" x2="56" y2="56" gradientUnits="userSpaceOnUse">
      <stop offset="0" stop-color="#1677ff" />
      <stop offset="1" stop-color="#722ed1" />
    </linearGradient>
  </defs>
  <rect x="6" y="6" width="52" height="52" rx="14" fill="url(#g)" />
  <path
    d="M26.2 38.6 19.4 31.8a2.2 2.2 0 0 1 3.1-3.1l3.7 3.7 15.2-15.2a2.2 2.2 0 0 1 3.1 3.1L29.3 38.6a2.2 2.2 0 0 1-3.1 0Z"
    fill="#fff"
  />
  <path
    d="M16 47.5c0-1.2 1-2.2 2.2-2.2h27.6c1.2 0 2.2 1 2.2 2.2 0 1.2-1 2.2-2.2 2.2H18.2c-1.2 0-2.2-1-2.2-2.2Z"
    fill="rgba(255,255,255,.85)"
  />
</svg>
